# xmcd CD database file generated by OrangeCD 6.4
#
# Track frame offsets:
#	150
#	43786
#	65196
#	121710
#	172595
#	229488
#	250645
#
# Disc length: 3830 seconds
#
# Revision: 2
# Processed by: cddbd v1.5.2PL0 Copyright (c) Steve Scherf et al.
# Submitted via: OrangeCD 6.4
#
DISCID=560ef407
DTITLE=Paul Kossoff with Black Cat Bones - Paul's Blues
DYEAR=2008
DGENRE=Blues
TTITLE0=Rock me Baby (Version 1)
TTITLE1=San Ho-Zay
TTITLE2=Bad Blood (Instrumental)
TTITLE3=The Sky is Cryin'
TTITLE4=Help me (Version 1)
TTITLE5=Messin' with the Kid
TTITLE6=Rock me Baby (Version 2)
EXTD=London Session 1967
EXTT0=
EXTT1=
EXTT2=
EXTT3=
EXTT4=
EXTT5=
EXTT6=
PLAYORDER=
